<svg height="4974" width="720" xmlns="http://www.w3.org/2000/svg">
<rect height="4974" fill="#555" width="720"></rect>
<text fill="#7f7" font-family="Courier New" font-size="12" xml:space="preserve">
<tspan x="10" y="26">10 megabytes installed</tspan>
<tspan x="10" y="42"></tspan>
<tspan x="10" y="58">node_modules</tspan>
<tspan x="10" y="74">└─┬ imagemin-pngquant@5.0.0 </tspan>
<tspan x="10" y="90">  ├─┬ exec-buffer@3.1.0 </tspan>
<tspan x="10" y="106">  │ ├─┬ execa@0.5.1 </tspan>
<tspan x="10" y="122">  │ │ ├─┬ cross-spawn@4.0.2 </tspan>
<tspan x="10" y="138">  │ │ │ ├─┬ lru-cache@4.0.2 </tspan>
<tspan x="10" y="154">  │ │ │ │ ├── pseudomap@1.0.2 </tspan>
<tspan x="10" y="170">  │ │ │ │ └── yallist@2.1.2 </tspan>
<tspan x="10" y="186">  │ │ │ └─┬ which@1.2.14 </tspan>
<tspan x="10" y="202">  │ │ │   └── isexe@2.0.0 </tspan>
<tspan x="10" y="218">  │ │ ├─┬ get-stream@2.3.1 </tspan>
<tspan x="10" y="234">  │ │ │ ├── object-assign@4.1.1 </tspan>
<tspan x="10" y="250">  │ │ │ └─┬ pinkie-promise@2.0.1 </tspan>
<tspan x="10" y="266">  │ │ │   └── pinkie@2.0.4 </tspan>
<tspan x="10" y="282">  │ │ ├── is-stream@1.1.0 </tspan>
<tspan x="10" y="298">  │ │ ├─┬ npm-run-path@2.0.2 </tspan>
<tspan x="10" y="314">  │ │ │ └── path-key@2.0.1 </tspan>
<tspan x="10" y="330">  │ │ ├── signal-exit@3.0.2 </tspan>
<tspan x="10" y="346">  │ │ └── strip-eof@1.0.0 </tspan>
<tspan x="10" y="362">  │ ├── p-finally@1.0.0 </tspan>
<tspan x="10" y="378">  │ ├── pify@2.3.0 </tspan>
<tspan x="10" y="394">  │ ├─┬ rimraf@2.6.1 </tspan>
<tspan x="10" y="410">  │ │ └─┬ glob@7.1.1 </tspan>
<tspan x="10" y="426">  │ │   ├── fs.realpath@1.0.0 </tspan>
<tspan x="10" y="442">  │ │   ├─┬ inflight@1.0.6 </tspan>
<tspan x="10" y="458">  │ │   │ └── wrappy@1.0.2 </tspan>
<tspan x="10" y="474">  │ │   ├── inherits@2.0.3 </tspan>
<tspan x="10" y="490">  │ │   ├─┬ minimatch@3.0.3 </tspan>
<tspan x="10" y="506">  │ │   │ └─┬ brace-expansion@1.1.7 </tspan>
<tspan x="10" y="522">  │ │   │   ├── balanced-match@0.4.2 </tspan>
<tspan x="10" y="538">  │ │   │   └── concat-map@0.0.1 </tspan>
<tspan x="10" y="554">  │ │   ├── once@1.4.0 </tspan>
<tspan x="10" y="570">  │ │   └── path-is-absolute@1.0.1 </tspan>
<tspan x="10" y="586">  │ └─┬ tempfile@1.1.1 </tspan>
<tspan x="10" y="602">  │   ├── os-tmpdir@1.0.2 </tspan>
<tspan x="10" y="618">  │   └── uuid@2.0.3 </tspan>
<tspan x="10" y="634">  ├── is-png@1.1.0 </tspan>
<tspan x="10" y="650">  └─┬ pngquant-bin@3.1.1 </tspan>
<tspan x="10" y="666">    ├─┬ bin-build@2.2.0 </tspan>
<tspan x="10" y="682">    │ ├─┬ archive-type@3.2.0 </tspan>
<tspan x="10" y="698">    │ │ └── file-type@3.9.0 </tspan>
<tspan x="10" y="714">    │ ├─┬ decompress@3.0.0 </tspan>
<tspan x="10" y="730">    │ │ ├── buffer-to-vinyl@1.1.0 </tspan>
<tspan x="10" y="746">    │ │ ├─┬ concat-stream@1.6.0 </tspan>
<tspan x="10" y="762">    │ │ │ └── typedarray@0.0.6 </tspan>
<tspan x="10" y="778">    │ │ ├─┬ decompress-tar@3.1.0 </tspan>
<tspan x="10" y="794">    │ │ │ ├── is-tar@1.0.0 </tspan>
<tspan x="10" y="810">    │ │ │ ├── object-assign@2.1.1 </tspan>
<tspan x="10" y="826">    │ │ │ ├─┬ strip-dirs@1.1.1 </tspan>
<tspan x="10" y="842">    │ │ │ │ ├─┬ is-absolute@0.1.7 </tspan>
<tspan x="10" y="858">    │ │ │ │ │ └── is-relative@0.1.3 </tspan>
<tspan x="10" y="874">    │ │ │ │ ├── is-natural-number@2.1.1 </tspan>
<tspan x="10" y="890">    │ │ │ │ └── sum-up@1.0.3 </tspan>
<tspan x="10" y="906">    │ │ │ ├─┬ tar-stream@1.5.2 </tspan>
<tspan x="10" y="922">    │ │ │ │ ├── bl@1.2.0 </tspan>
<tspan x="10" y="938">    │ │ │ │ ├── end-of-stream@1.4.0 </tspan>
<tspan x="10" y="954">    │ │ │ │ └── xtend@4.0.1 </tspan>
<tspan x="10" y="970">    │ │ │ ├─┬ through2@0.6.5 </tspan>
<tspan x="10" y="986">    │ │ │ │ └─┬ readable-stream@1.0.34 </tspan>
<tspan x="10" y="1002">    │ │ │ │   ├── isarray@0.0.1 </tspan>
<tspan x="10" y="1018">    │ │ │ │   └── string_decoder@0.10.31 </tspan>
<tspan x="10" y="1034">    │ │ │ └─┬ vinyl@0.4.6 </tspan>
<tspan x="10" y="1050">    │ │ │   └── clone@0.2.0 </tspan>
<tspan x="10" y="1066">    │ │ ├─┬ decompress-tarbz2@3.1.0 </tspan>
<tspan x="10" y="1082">    │ │ │ ├── is-bzip2@1.0.0 </tspan>
<tspan x="10" y="1098">    │ │ │ ├── object-assign@2.1.1 </tspan>
<tspan x="10" y="1114">    │ │ │ ├─┬ seek-bzip@1.0.5 </tspan>
<tspan x="10" y="1130">    │ │ │ │ └─┬ commander@2.8.1 </tspan>
<tspan x="10" y="1146">    │ │ │ │   └── graceful-readlink@1.0.1 </tspan>
<tspan x="10" y="1162">    │ │ │ └─┬ vinyl@0.4.6 </tspan>
<tspan x="10" y="1178">    │ │ │   └── clone@0.2.0 </tspan>
<tspan x="10" y="1194">    │ │ ├─┬ decompress-targz@3.1.0 </tspan>
<tspan x="10" y="1210">    │ │ │ ├── is-gzip@1.0.0 </tspan>
<tspan x="10" y="1226">    │ │ │ ├── object-assign@2.1.1 </tspan>
<tspan x="10" y="1242">    │ │ │ └─┬ vinyl@0.4.6 </tspan>
<tspan x="10" y="1258">    │ │ │   └── clone@0.2.0 </tspan>
<tspan x="10" y="1274">    │ │ ├─┬ decompress-unzip@3.4.0 </tspan>
<tspan x="10" y="1290">    │ │ │ ├── is-zip@1.0.0 </tspan>
<tspan x="10" y="1306">    │ │ │ ├── stat-mode@0.2.2 </tspan>
<tspan x="10" y="1322">    │ │ │ ├── through2@2.0.3 </tspan>
<tspan x="10" y="1338">    │ │ │ └─┬ yauzl@2.7.0 </tspan>
<tspan x="10" y="1354">    │ │ │   ├── buffer-crc32@0.2.13 </tspan>
<tspan x="10" y="1370">    │ │ │   └─┬ fd-slicer@1.0.1 </tspan>
<tspan x="10" y="1386">    │ │ │     └── pend@1.2.0 </tspan>
<tspan x="10" y="1402">    │ │ ├─┬ stream-combiner2@1.1.1 </tspan>
<tspan x="10" y="1418">    │ │ │ └── duplexer2@0.1.4 </tspan>
<tspan x="10" y="1434">    │ │ ├── vinyl-assign@1.2.1 </tspan>
<tspan x="10" y="1450">    │ │ └─┬ vinyl-fs@2.4.4 </tspan>
<tspan x="10" y="1466">    │ │   ├─┬ duplexify@3.5.0 </tspan>
<tspan x="10" y="1482">    │ │   │ ├─┬ end-of-stream@1.0.0 </tspan>
<tspan x="10" y="1498">    │ │   │ │ └── once@1.3.3 </tspan>
<tspan x="10" y="1514">    │ │   │ └── stream-shift@1.0.0 </tspan>
<tspan x="10" y="1530">    │ │   ├─┬ glob-stream@5.3.5 </tspan>
<tspan x="10" y="1546">    │ │   │ ├── extend@3.0.0 </tspan>
<tspan x="10" y="1562">    │ │   │ ├── glob@5.0.15 </tspan>
<tspan x="10" y="1578">    │ │   │ ├─┬ glob-parent@3.1.0 </tspan>
<tspan x="10" y="1594">    │ │   │ │ ├─┬ is-glob@3.1.0 </tspan>
<tspan x="10" y="1610">    │ │   │ │ │ └── is-extglob@2.1.1 </tspan>
<tspan x="10" y="1626">    │ │   │ │ └── path-dirname@1.0.2 </tspan>
<tspan x="10" y="1642">    │ │   │ ├─┬ micromatch@2.3.11 </tspan>
<tspan x="10" y="1658">    │ │   │ │ ├─┬ arr-diff@2.0.0 </tspan>
<tspan x="10" y="1674">    │ │   │ │ │ └── arr-flatten@1.0.3 </tspan>
<tspan x="10" y="1690">    │ │   │ │ ├── array-unique@0.2.1 </tspan>
<tspan x="10" y="1706">    │ │   │ │ ├─┬ braces@1.8.5 </tspan>
<tspan x="10" y="1722">    │ │   │ │ │ ├─┬ expand-range@1.8.2 </tspan>
<tspan x="10" y="1738">    │ │   │ │ │ │ └─┬ fill-range@2.2.3 </tspan>
<tspan x="10" y="1754">    │ │   │ │ │ │   ├── is-number@2.1.0 </tspan>
<tspan x="10" y="1770">    │ │   │ │ │ │   ├── isobject@2.1.0 </tspan>
<tspan x="10" y="1786">    │ │   │ │ │ │   ├── randomatic@1.1.6 </tspan>
<tspan x="10" y="1802">    │ │   │ │ │ │   └── repeat-string@1.6.1 </tspan>
<tspan x="10" y="1818">    │ │   │ │ │ ├── preserve@0.2.0 </tspan>
<tspan x="10" y="1834">    │ │   │ │ │ └── repeat-element@1.1.2 </tspan>
<tspan x="10" y="1850">    │ │   │ │ ├─┬ expand-brackets@0.1.5 </tspan>
<tspan x="10" y="1866">    │ │   │ │ │ └── is-posix-bracket@0.1.1 </tspan>
<tspan x="10" y="1882">    │ │   │ │ ├─┬ extglob@0.3.2 </tspan>
<tspan x="10" y="1898">    │ │   │ │ │ └── is-extglob@1.0.0 </tspan>
<tspan x="10" y="1914">    │ │   │ │ ├── filename-regex@2.0.0 </tspan>
<tspan x="10" y="1930">    │ │   │ │ ├── is-extglob@1.0.0 </tspan>
<tspan x="10" y="1946">    │ │   │ │ ├── is-glob@2.0.1 </tspan>
<tspan x="10" y="1962">    │ │   │ │ ├─┬ kind-of@3.1.0 </tspan>
<tspan x="10" y="1978">    │ │   │ │ │ └── is-buffer@1.1.5 </tspan>
<tspan x="10" y="1994">    │ │   │ │ ├─┬ normalize-path@2.1.1 </tspan>
<tspan x="10" y="2010">    │ │   │ │ │ └── remove-trailing-separator@1.0.1 </tspan>
<tspan x="10" y="2026">    │ │   │ │ ├─┬ object.omit@2.0.1 </tspan>
<tspan x="10" y="2042">    │ │   │ │ │ ├─┬ for-own@0.1.5 </tspan>
<tspan x="10" y="2058">    │ │   │ │ │ │ └── for-in@1.0.2 </tspan>
<tspan x="10" y="2074">    │ │   │ │ │ └── is-extendable@0.1.1 </tspan>
<tspan x="10" y="2090">    │ │   │ │ ├─┬ parse-glob@3.0.4 </tspan>
<tspan x="10" y="2106">    │ │   │ │ │ ├─┬ glob-base@0.3.0 </tspan>
<tspan x="10" y="2122">    │ │   │ │ │ │ ├── glob-parent@2.0.0 </tspan>
<tspan x="10" y="2138">    │ │   │ │ │ │ └─┬ is-glob@2.0.1 </tspan>
<tspan x="10" y="2154">    │ │   │ │ │ │   └── is-extglob@1.0.0 </tspan>
<tspan x="10" y="2170">    │ │   │ │ │ ├── is-dotfile@1.0.2 </tspan>
<tspan x="10" y="2186">    │ │   │ │ │ ├── is-extglob@1.0.0 </tspan>
<tspan x="10" y="2202">    │ │   │ │ │ └── is-glob@2.0.1 </tspan>
<tspan x="10" y="2218">    │ │   │ │ └─┬ regex-cache@0.4.3 </tspan>
<tspan x="10" y="2234">    │ │   │ │   ├── is-equal-shallow@0.1.3 </tspan>
<tspan x="10" y="2250">    │ │   │ │   └── is-primitive@2.0.0 </tspan>
<tspan x="10" y="2266">    │ │   │ ├── ordered-read-streams@0.3.0 </tspan>
<tspan x="10" y="2282">    │ │   │ ├─┬ to-absolute-glob@0.1.1 </tspan>
<tspan x="10" y="2298">    │ │   │ │ └── extend-shallow@2.0.1 </tspan>
<tspan x="10" y="2314">    │ │   │ └─┬ unique-stream@2.2.1 </tspan>
<tspan x="10" y="2330">    │ │   │   └─┬ json-stable-stringify@1.0.1 </tspan>
<tspan x="10" y="2346">    │ │   │     └── jsonify@0.0.0 </tspan>
<tspan x="10" y="2362">    │ │   ├── graceful-fs@4.1.11 </tspan>
<tspan x="10" y="2378">    │ │   ├─┬ gulp-sourcemaps@1.6.0 </tspan>
<tspan x="10" y="2394">    │ │   │ ├── convert-source-map@1.5.0 </tspan>
<tspan x="10" y="2410">    │ │   │ └── through2@2.0.3 </tspan>
<tspan x="10" y="2426">    │ │   ├── is-valid-glob@0.3.0 </tspan>
<tspan x="10" y="2442">    │ │   ├── lazystream@1.0.0 </tspan>
<tspan x="10" y="2458">    │ │   ├── lodash.isequal@4.5.0 </tspan>
<tspan x="10" y="2474">    │ │   ├── merge-stream@1.0.1 </tspan>
<tspan x="10" y="2490">    │ │   ├─┬ mkdirp@0.5.1 </tspan>
<tspan x="10" y="2506">    │ │   │ └── minimist@0.0.8 </tspan>
<tspan x="10" y="2522">    │ │   ├─┬ strip-bom@2.0.0 </tspan>
<tspan x="10" y="2538">    │ │   │ └── is-utf8@0.2.1 </tspan>
<tspan x="10" y="2554">    │ │   ├─┬ strip-bom-stream@1.0.0 </tspan>
<tspan x="10" y="2570">    │ │   │ └── first-chunk-stream@1.0.0 </tspan>
<tspan x="10" y="2586">    │ │   ├── through2@2.0.3 </tspan>
<tspan x="10" y="2602">    │ │   ├─┬ through2-filter@2.0.0 </tspan>
<tspan x="10" y="2618">    │ │   │ └── through2@2.0.3 </tspan>
<tspan x="10" y="2634">    │ │   └── vali-date@1.0.0 </tspan>
<tspan x="10" y="2650">    │ ├─┬ download@4.4.3 </tspan>
<tspan x="10" y="2666">    │ │ ├─┬ caw@1.2.0 </tspan>
<tspan x="10" y="2682">    │ │ │ ├─┬ get-proxy@1.1.0 </tspan>
<tspan x="10" y="2698">    │ │ │ │ └─┬ rc@1.2.1 </tspan>
<tspan x="10" y="2714">    │ │ │ │   ├── deep-extend@0.4.1 </tspan>
<tspan x="10" y="2730">    │ │ │ │   ├── ini@1.3.4 </tspan>
<tspan x="10" y="2746">    │ │ │ │   └── strip-json-comments@2.0.1 </tspan>
<tspan x="10" y="2762">    │ │ │ ├── is-obj@1.0.1 </tspan>
<tspan x="10" y="2778">    │ │ │ ├── object-assign@3.0.0 </tspan>
<tspan x="10" y="2794">    │ │ │ └── tunnel-agent@0.4.3 </tspan>
<tspan x="10" y="2810">    │ │ ├─┬ filenamify@1.2.1 </tspan>
<tspan x="10" y="2826">    │ │ │ ├── filename-reserved-regex@1.0.0 </tspan>
<tspan x="10" y="2842">    │ │ │ ├── strip-outer@1.0.0 </tspan>
<tspan x="10" y="2858">    │ │ │ └── trim-repeated@1.0.0 </tspan>
<tspan x="10" y="2874">    │ │ ├─┬ got@5.7.1 </tspan>
<tspan x="10" y="2890">    │ │ │ ├─┬ create-error-class@3.0.2 </tspan>
<tspan x="10" y="2906">    │ │ │ │ └── capture-stack-trace@1.0.0 </tspan>
<tspan x="10" y="2922">    │ │ │ ├── is-redirect@1.0.0 </tspan>
<tspan x="10" y="2938">    │ │ │ ├── is-retry-allowed@1.1.0 </tspan>
<tspan x="10" y="2954">    │ │ │ ├── lowercase-keys@1.0.0 </tspan>
<tspan x="10" y="2970">    │ │ │ ├── node-status-codes@1.0.0 </tspan>
<tspan x="10" y="2986">    │ │ │ ├─┬ parse-json@2.2.0 </tspan>
<tspan x="10" y="3002">    │ │ │ │ └─┬ error-ex@1.3.1 </tspan>
<tspan x="10" y="3018">    │ │ │ │   └── is-arrayish@0.2.1 </tspan>
<tspan x="10" y="3034">    │ │ │ ├── timed-out@3.1.3 </tspan>
<tspan x="10" y="3050">    │ │ │ ├── unzip-response@1.0.2 </tspan>
<tspan x="10" y="3066">    │ │ │ └─┬ url-parse-lax@1.0.0 </tspan>
<tspan x="10" y="3082">    │ │ │   └── prepend-http@1.0.4 </tspan>
<tspan x="10" y="3098">    │ │ ├─┬ gulp-decompress@1.2.0 </tspan>
<tspan x="10" y="3114">    │ │ │ └─┬ gulp-util@3.0.8 </tspan>
<tspan x="10" y="3130">    │ │ │   ├── array-differ@1.0.0 </tspan>
<tspan x="10" y="3146">    │ │ │   ├── array-uniq@1.0.3 </tspan>
<tspan x="10" y="3162">    │ │ │   ├── beeper@1.1.1 </tspan>
<tspan x="10" y="3178">    │ │ │   ├── dateformat@2.0.0 </tspan>
<tspan x="10" y="3194">    │ │ │   ├─┬ fancy-log@1.3.0 </tspan>
<tspan x="10" y="3210">    │ │ │   │ └── time-stamp@1.0.1 </tspan>
<tspan x="10" y="3226">    │ │ │   ├─┬ gulplog@1.0.0 </tspan>
<tspan x="10" y="3242">    │ │ │   │ └── glogg@1.0.0 </tspan>
<tspan x="10" y="3258">    │ │ │   ├─┬ has-gulplog@0.1.0 </tspan>
<tspan x="10" y="3274">    │ │ │   │ └── sparkles@1.0.0 </tspan>
<tspan x="10" y="3290">    │ │ │   ├── lodash._reescape@3.0.0 </tspan>
<tspan x="10" y="3306">    │ │ │   ├── lodash._reevaluate@3.0.0 </tspan>
<tspan x="10" y="3322">    │ │ │   ├── lodash._reinterpolate@3.0.0 </tspan>
<tspan x="10" y="3338">    │ │ │   ├─┬ lodash.template@3.6.2 </tspan>
<tspan x="10" y="3354">    │ │ │   │ ├── lodash._basecopy@3.0.1 </tspan>
<tspan x="10" y="3370">    │ │ │   │ ├── lodash._basetostring@3.0.1 </tspan>
<tspan x="10" y="3386">    │ │ │   │ ├── lodash._basevalues@3.0.0 </tspan>
<tspan x="10" y="3402">    │ │ │   │ ├── lodash._isiterateecall@3.0.9 </tspan>
<tspan x="10" y="3418">    │ │ │   │ ├─┬ lodash.escape@3.2.0 </tspan>
<tspan x="10" y="3434">    │ │ │   │ │ └── lodash._root@3.0.1 </tspan>
<tspan x="10" y="3450">    │ │ │   │ ├─┬ lodash.keys@3.1.2 </tspan>
<tspan x="10" y="3466">    │ │ │   │ │ ├── lodash._getnative@3.9.1 </tspan>
<tspan x="10" y="3482">    │ │ │   │ │ ├── lodash.isarguments@3.1.0 </tspan>
<tspan x="10" y="3498">    │ │ │   │ │ └── lodash.isarray@3.0.4 </tspan>
<tspan x="10" y="3514">    │ │ │   │ ├── lodash.restparam@3.6.1 </tspan>
<tspan x="10" y="3530">    │ │ │   │ └── lodash.templatesettings@3.1.1 </tspan>
<tspan x="10" y="3546">    │ │ │   ├─┬ multipipe@0.1.2 </tspan>
<tspan x="10" y="3562">    │ │ │   │ └─┬ duplexer2@0.0.2 </tspan>
<tspan x="10" y="3578">    │ │ │   │   └─┬ readable-stream@1.1.14 </tspan>
<tspan x="10" y="3594">    │ │ │   │     ├── isarray@0.0.1 </tspan>
<tspan x="10" y="3610">    │ │ │   │     └── string_decoder@0.10.31 </tspan>
<tspan x="10" y="3626">    │ │ │   ├── object-assign@3.0.0 </tspan>
<tspan x="10" y="3642">    │ │ │   ├── through2@2.0.3 </tspan>
<tspan x="10" y="3658">    │ │ │   └── vinyl@0.5.3 </tspan>
<tspan x="10" y="3674">    │ │ ├── gulp-rename@1.2.2 </tspan>
<tspan x="10" y="3690">    │ │ ├── is-url@1.2.2 </tspan>
<tspan x="10" y="3706">    │ │ ├── read-all-stream@3.1.0 </tspan>
<tspan x="10" y="3722">    │ │ ├─┬ readable-stream@2.2.9 </tspan>
<tspan x="10" y="3738">    │ │ │ ├── buffer-shims@1.0.0 </tspan>
<tspan x="10" y="3754">    │ │ │ ├── core-util-is@1.0.2 </tspan>
<tspan x="10" y="3770">    │ │ │ ├── isarray@1.0.0 </tspan>
<tspan x="10" y="3786">    │ │ │ ├── process-nextick-args@1.0.7 </tspan>
<tspan x="10" y="3802">    │ │ │ ├── string_decoder@1.0.0 </tspan>
<tspan x="10" y="3818">    │ │ │ └── util-deprecate@1.0.2 </tspan>
<tspan x="10" y="3834">    │ │ ├─┬ vinyl@1.2.0 </tspan>
<tspan x="10" y="3850">    │ │ │ ├── clone@1.0.2 </tspan>
<tspan x="10" y="3866">    │ │ │ ├── clone-stats@0.0.1 </tspan>
<tspan x="10" y="3882">    │ │ │ └── replace-ext@0.0.1 </tspan>
<tspan x="10" y="3898">    │ │ └─┬ ware@1.3.0 </tspan>
<tspan x="10" y="3914">    │ │   └─┬ wrap-fn@0.1.5 </tspan>
<tspan x="10" y="3930">    │ │     └── co@3.1.0 </tspan>
<tspan x="10" y="3946">    │ ├─┬ exec-series@1.0.3 </tspan>
<tspan x="10" y="3962">    │ │ └── async-each-series@1.1.0 </tspan>
<tspan x="10" y="3978">    │ └─┬ url-regex@3.2.0 </tspan>
<tspan x="10" y="3994">    │   └── ip-regex@1.0.3 </tspan>
<tspan x="10" y="4010">    ├─┬ bin-wrapper@3.0.2 </tspan>
<tspan x="10" y="4026">    │ ├─┬ bin-check@2.0.0 </tspan>
<tspan x="10" y="4042">    │ │ └─┬ executable@1.1.0 </tspan>
<tspan x="10" y="4058">    │ │   └─┬ meow@3.7.0 </tspan>
<tspan x="10" y="4074">    │ │     ├─┬ camelcase-keys@2.1.0 </tspan>
<tspan x="10" y="4090">    │ │     │ └── camelcase@2.1.1 </tspan>
<tspan x="10" y="4106">    │ │     ├── decamelize@1.2.0 </tspan>
<tspan x="10" y="4122">    │ │     ├─┬ loud-rejection@1.6.0 </tspan>
<tspan x="10" y="4138">    │ │     │ └─┬ currently-unhandled@0.4.1 </tspan>
<tspan x="10" y="4154">    │ │     │   └── array-find-index@1.0.2 </tspan>
<tspan x="10" y="4170">    │ │     ├── map-obj@1.0.1 </tspan>
<tspan x="10" y="4186">    │ │     ├─┬ normalize-package-data@2.3.8 </tspan>
<tspan x="10" y="4202">    │ │     │ ├── hosted-git-info@2.4.2 </tspan>
<tspan x="10" y="4218">    │ │     │ ├─┬ is-builtin-module@1.0.0 </tspan>
<tspan x="10" y="4234">    │ │     │ │ └── builtin-modules@1.1.1 </tspan>
<tspan x="10" y="4250">    │ │     │ └─┬ validate-npm-package-license@3.0.1 </tspan>
<tspan x="10" y="4266">    │ │     │   ├─┬ spdx-correct@1.0.2 </tspan>
<tspan x="10" y="4282">    │ │     │   │ └── spdx-license-ids@1.2.2 </tspan>
<tspan x="10" y="4298">    │ │     │   └── spdx-expression-parse@1.0.4 </tspan>
<tspan x="10" y="4314">    │ │     ├─┬ read-pkg-up@1.0.1 </tspan>
<tspan x="10" y="4330">    │ │     │ ├─┬ find-up@1.1.2 </tspan>
<tspan x="10" y="4346">    │ │     │ │ └── path-exists@2.1.0 </tspan>
<tspan x="10" y="4362">    │ │     │ └─┬ read-pkg@1.1.0 </tspan>
<tspan x="10" y="4378">    │ │     │   ├── load-json-file@1.1.0 </tspan>
<tspan x="10" y="4394">    │ │     │   └── path-type@1.1.0 </tspan>
<tspan x="10" y="4410">    │ │     ├─┬ redent@1.0.0 </tspan>
<tspan x="10" y="4426">    │ │     │ ├─┬ indent-string@2.1.0 </tspan>
<tspan x="10" y="4442">    │ │     │ │ └─┬ repeating@2.0.1 </tspan>
<tspan x="10" y="4458">    │ │     │ │   └─┬ is-finite@1.0.2 </tspan>
<tspan x="10" y="4474">    │ │     │ │     └── number-is-nan@1.0.1 </tspan>
<tspan x="10" y="4490">    │ │     │ └── strip-indent@1.0.1 </tspan>
<tspan x="10" y="4506">    │ │     └── trim-newlines@1.0.0 </tspan>
<tspan x="10" y="4522">    │ ├─┬ bin-version-check@2.1.0 </tspan>
<tspan x="10" y="4538">    │ │ ├─┬ bin-version@1.0.4 </tspan>
<tspan x="10" y="4554">    │ │ │ └─┬ find-versions@1.2.1 </tspan>
<tspan x="10" y="4570">    │ │ │   └── semver-regex@1.0.0 </tspan>
<tspan x="10" y="4586">    │ │ ├── minimist@1.2.0 </tspan>
<tspan x="10" y="4602">    │ │ ├── semver@4.3.6 </tspan>
<tspan x="10" y="4618">    │ │ └─┬ semver-truncate@1.1.2 </tspan>
<tspan x="10" y="4634">    │ │   └── semver@5.3.0 </tspan>
<tspan x="10" y="4650">    │ ├─┬ each-async@1.1.1 </tspan>
<tspan x="10" y="4666">    │ │ ├── onetime@1.1.0 </tspan>
<tspan x="10" y="4682">    │ │ └── set-immediate-shim@1.0.1 </tspan>
<tspan x="10" y="4698">    │ ├── lazy-req@1.1.0 </tspan>
<tspan x="10" y="4714">    │ └── os-filter-obj@1.0.3 </tspan>
<tspan x="10" y="4730">    └─┬ logalot@2.1.0 </tspan>
<tspan x="10" y="4746">      ├─┬ figures@1.7.0 </tspan>
<tspan x="10" y="4762">      │ └── escape-string-regexp@1.0.5 </tspan>
<tspan x="10" y="4778">      └─┬ squeak@1.3.0 </tspan>
<tspan x="10" y="4794">        ├─┬ chalk@1.1.3 </tspan>
<tspan x="10" y="4810">        │ ├── ansi-styles@2.2.1 </tspan>
<tspan x="10" y="4826">        │ ├─┬ has-ansi@2.0.0 </tspan>
<tspan x="10" y="4842">        │ │ └── ansi-regex@2.1.1 </tspan>
<tspan x="10" y="4858">        │ ├── strip-ansi@3.0.1 </tspan>
<tspan x="10" y="4874">        │ └── supports-color@2.0.0 </tspan>
<tspan x="10" y="4890">        ├── console-stream@0.1.1 </tspan>
<tspan x="10" y="4906">        └─┬ lpad-align@1.1.0 </tspan>
<tspan x="10" y="4922">          ├── get-stdin@4.0.1 </tspan>
<tspan x="10" y="4938">          ├── longest@1.0.1 </tspan>
<tspan x="10" y="4954">          └── lpad@2.0.1</tspan>
</text>
</svg>
